<svg width="12" height="12" viewBox="0 0 12 12" fill="none" xmlns="http://www.w3.org/2000/svg">
<circle cx="6" cy="6" r="5.9" fill="white" fill-opacity="0.5" stroke="white" stroke-width="0.2"/>
<path d="M5.23521 8.16097C5.1003 8.1612 4.96897 8.11755 4.86103 8.03662L4.85434 8.03159L3.44501 6.9535C3.31335 6.85238 3.22722 6.70313 3.20556 6.53854C3.18389 6.37395 3.22844 6.20749 3.32945 6.07574C3.43045 5.94399 3.57963 5.85774 3.7442 5.83593C3.90877 5.81411 4.07528 5.85853 4.20711 5.95942L5.11996 6.65944L7.27709 3.84524C7.3271 3.78 7.38948 3.72524 7.46066 3.6841C7.53184 3.64297 7.61043 3.61625 7.69193 3.60549C7.77344 3.59472 7.85627 3.60012 7.93569 3.62136C8.01511 3.6426 8.08956 3.67928 8.15481 3.72931L8.15499 3.72944L8.14161 3.74803L8.15535 3.72944C8.28698 3.83061 8.3731 3.97985 8.39481 4.14444C8.41652 4.30903 8.37205 4.47551 8.27115 4.60734L5.73391 7.91598C5.67521 7.99222 5.59974 8.05391 5.51335 8.09626C5.42696 8.13862 5.33198 8.16051 5.23576 8.16023L5.23521 8.16097Z" fill="#00C537"/>
</svg>
