<svg width="539" height="232" viewBox="0 0 539 232" fill="none" xmlns="http://www.w3.org/2000/svg">
<g clip-path="url(#clip0_205_128)">
<path d="M118.267 129.754C118.272 129.046 118.131 128.344 117.852 127.693C117.574 127.041 117.164 126.454 116.648 125.968C116.133 125.482 115.523 125.108 114.856 124.868C114.189 124.629 113.481 124.529 112.774 124.576C112.067 124.623 111.377 124.815 110.748 125.14C110.119 125.465 109.563 125.916 109.116 126.466C108.669 127.015 108.34 127.651 108.149 128.333C107.959 129.016 107.911 129.73 108.01 130.432L93.2033 149.821C92.5715 151.085 92.3265 152.507 92.4991 153.909C92.6717 155.311 93.2541 156.631 94.1735 157.704L95.335 159.058L100.664 157.993L106.704 152.663L105.993 146.623L113.454 134.899L113.445 134.891C114.751 134.808 115.976 134.23 116.872 133.276C117.767 132.322 118.266 131.063 118.267 129.754V129.754Z" fill="#D18181"/>
<path d="M15.8769 224.547L13.46 215.57L46.9324 201.977L50.4994 215.225L15.8769 224.547Z" fill="#D18181"/>
<path d="M7.7921 229.178L-0.000488281 200.235L0.365589 200.137C3.35331 199.333 6.53817 199.748 9.21964 201.292C11.9011 202.835 13.8596 205.381 14.6642 208.369L14.6644 208.369L19.4238 226.047L7.7921 229.178Z" fill="#2F2E41"/>
<path d="M61.9835 223.112L54.4658 217.645L71.9763 186.045L83.0721 194.114L61.9835 223.112Z" fill="#D18181"/>
<path d="M58.6011 231.794L34.3599 214.165L34.5828 213.859C36.4027 211.356 39.142 209.679 42.1982 209.197C45.2544 208.714 48.3772 209.465 50.8797 211.285L50.8803 211.285L65.686 222.052L58.6011 231.794Z" fill="#2F2E41"/>
<path d="M125.89 178.954L106.971 160.576C105.32 158.972 103.146 158.018 100.847 157.89C98.5489 157.762 96.2816 158.467 94.4621 159.877L58.7412 199.561L61.9389 204.535L96.0459 181.441L119.139 211.64L141.167 200.627L125.89 178.954Z" fill="#2F2E41"/>
<path d="M117.718 182.862L103.862 181.797L93.827 179.364C93.2602 178.48 92.4368 177.79 91.467 177.386C90.4973 176.983 89.4274 176.885 88.4007 177.107C87.374 177.328 86.4395 177.858 85.7222 178.625C85.0049 179.393 84.5391 180.361 84.3872 181.4C84.2353 182.439 84.4045 183.5 84.8721 184.44C85.3398 185.381 86.0836 186.156 87.0039 186.662C87.9243 187.168 88.9773 187.381 90.0219 187.272C91.0666 187.163 92.053 186.738 92.8492 186.053L92.8477 186.06L98.8877 188.547L124.823 197.429L128.021 194.942L117.718 182.862Z" fill="#D18181"/>
<path d="M151.115 221.233L143.298 226.207L134.061 226.207L91.0717 210.22L28.1865 221.589L26.4102 208.087L83.9663 182.863L134.416 199.561L151.115 221.233Z" fill="#2F2E41"/>
<path d="M134.416 134.899C142.069 134.899 148.272 128.696 148.272 121.043C148.272 113.391 142.069 107.187 134.416 107.187C126.764 107.187 120.56 113.391 120.56 121.043C120.56 128.696 126.764 134.899 134.416 134.899Z" fill="#D18181"/>
<path d="M170.268 176.364C170.268 184.727 168.95 193.037 166.364 200.989L165.326 204.179L160.352 226.918L155.023 228.339L151.115 223.365L143.299 217.68L137.614 208.443L132.74 200.321L131.219 197.784L125.89 171.138L105.639 159.769L98.8882 158.703L100.309 154.795L106.349 146.623L112.389 145.913L114.165 144.492L115.586 145.202L123.421 148.22L148.82 137.489L152.536 138.097L165.326 148.755C168.596 157.593 170.269 166.941 170.268 176.364V176.364Z" fill="#CCCCCC"/>
<path opacity="0.1" d="M166.392 173.27L152.891 182.152L132.74 200.321L131.219 197.784L126.956 176.467L128.022 176.467L139.035 156.217L166.392 173.27Z" fill="black"/>
<path d="M139.035 154.084L128.021 174.335L121.626 181.441L115.942 182.863L131.219 199.561L152.891 180.02L166.391 171.138L139.035 154.084Z" fill="#CCCCCC"/>
<path d="M123.639 110.741L122.138 111.318C121.91 111.164 121.715 110.966 121.563 110.736C121.412 110.507 121.307 110.249 121.255 109.979C121.203 109.709 121.204 109.431 121.26 109.161C121.315 108.892 121.423 108.636 121.577 108.408C121.585 108.396 121.594 108.384 121.602 108.372L118.828 108.242C120.609 105.87 122.873 103.904 125.471 102.472C128.069 101.041 130.941 100.178 133.897 99.9393C136.854 99.701 139.827 100.093 142.621 101.09C145.414 102.087 147.964 103.665 150.102 105.722C150.228 105.287 151.605 106.133 152.167 106.991C152.356 106.283 153.647 109.705 154.104 112.124C154.315 111.319 155.128 112.619 154.416 113.866C154.867 113.801 155.071 114.955 154.722 115.598C155.216 115.366 155.132 116.744 154.597 117.665C155.301 117.603 154.537 132.11 143.967 131.053C143.231 127.672 143.438 127.882 142.571 123.534C142.168 123.106 141.726 122.716 141.286 122.327L138.9 120.222C136.127 117.774 133.604 114.752 129.91 113.837C127.371 113.209 125.765 113.067 127.149 110.206C125.899 110.727 124.732 111.503 123.47 111.988C123.487 111.588 123.664 111.141 123.639 110.741Z" fill="#2F2E41"/>
<path d="M141.345 125.129C142.718 125.129 143.832 124.015 143.832 122.642C143.832 121.268 142.718 120.155 141.345 120.155C139.971 120.155 138.858 121.268 138.858 122.642C138.858 124.015 139.971 125.129 141.345 125.129Z" fill="#D18181"/>
<path d="M509.113 0.998535L171.185 0.998535C169.964 0.998534 168.754 1.23912 167.626 1.70654C166.497 2.17397 165.472 2.85909 164.608 3.72279C163.744 4.58648 163.059 5.61184 162.592 6.74031C162.124 7.86879 161.884 9.07828 161.884 10.2997L161.884 198.587C161.884 199.809 162.124 201.018 162.592 202.146C163.059 203.275 163.744 204.3 164.608 205.164C165.472 206.028 166.497 206.713 167.626 207.18C168.754 207.648 169.964 207.888 171.185 207.888L509.113 207.888C511.58 207.888 513.946 206.908 515.69 205.164C517.434 203.42 518.414 201.054 518.414 198.587L518.414 10.2997C518.414 7.8329 517.434 5.46711 515.69 3.72279C513.946 1.97848 511.58 0.998537 509.113 0.998535V0.998535Z" fill="#3F3D56"/>
<path d="M505.944 17.4364L174.354 17.4364L174.354 204.487L505.944 204.487L505.944 17.4364Z" fill="white"/>
<path d="M339.866 12.3349C341.744 12.3349 343.267 10.8123 343.267 8.934C343.267 7.05573 341.744 5.53308 339.866 5.53308C337.988 5.53308 336.465 7.05573 336.465 8.934C336.465 10.8123 337.988 12.3349 339.866 12.3349Z" fill="white"/>
<path d="M411.115 204.488L174.354 204.488L174.354 17.4366L411.115 204.488Z" fill="#F2F2F2"/>
<path d="M226.238 190.49C243.841 190.49 258.111 176.22 258.111 158.617C258.111 141.014 243.841 126.743 226.238 126.743C208.635 126.743 194.364 141.014 194.364 158.617C194.364 176.22 208.635 190.49 226.238 190.49Z" fill="#EE387A"/>
<path d="M233.333 182.573C225.492 182.573 217.826 180.247 211.306 175.891C204.786 171.534 199.704 165.342 196.704 158.098C193.703 150.853 192.918 142.881 194.447 135.19C195.977 127.5 199.753 120.435 205.298 114.89C210.843 109.345 217.907 105.569 225.598 104.04C233.289 102.51 241.261 103.295 248.506 106.296C255.75 109.297 261.942 114.378 266.299 120.898C270.655 127.418 272.981 135.084 272.981 142.925C272.981 148.132 271.955 153.287 269.963 158.098C267.97 162.908 265.05 167.279 261.368 170.96C257.686 174.642 253.316 177.562 248.506 179.555C243.695 181.547 238.54 182.573 233.333 182.573V182.573ZM233.333 103.796C225.594 103.796 218.029 106.091 211.594 110.39C205.159 114.69 200.144 120.801 197.182 127.951C194.221 135.101 193.446 142.969 194.956 150.559C196.465 158.149 200.192 165.121 205.664 170.594C211.137 176.066 218.109 179.793 225.699 181.303C233.29 182.812 241.157 182.038 248.307 179.076C255.457 176.114 261.568 171.099 265.868 164.664C270.167 158.23 272.462 150.664 272.462 142.925C272.462 137.787 271.45 132.699 269.484 127.951C267.517 123.204 264.635 118.89 261.002 115.257C257.368 111.623 253.055 108.741 248.307 106.775C243.56 104.808 238.472 103.796 233.333 103.796L233.333 103.796Z" fill="#3F3D56"/>
<path d="M429.182 114.615L398.208 114.615L398.208 121.087L429.182 121.087L429.182 114.615Z" fill="#3F3D56"/>
<path d="M458.487 79.551L368.903 79.551L368.903 82.3248L458.487 82.3248L458.487 79.551Z" fill="#3F3D56"/>
<path d="M458.487 90.449L368.903 90.449L368.903 93.2228L458.487 93.2228L458.487 90.449Z" fill="#3F3D56"/>
<path d="M458.487 101.347L368.903 101.347L368.903 104.121L458.487 104.121L458.487 101.347Z" fill="#3F3D56"/>
<path d="M482.484 28.6306L469.54 28.6306L469.54 41.575L482.484 41.575L482.484 28.6306Z" fill="#EE387A"/>
<path d="M488.494 47.5848L472.776 47.5848L472.776 31.8666L488.494 31.8666L488.494 47.5848ZM473.459 46.9015L487.811 46.9015L487.811 32.55L473.459 32.55L473.459 46.9015Z" fill="#CCCCCC"/>
<path d="M527.724 201.086L495.363 201.086L495.363 198.755C495.363 198.694 495.351 198.634 495.328 198.578C495.305 198.522 495.271 198.471 495.228 198.428C495.185 198.385 495.134 198.351 495.078 198.328C495.022 198.304 494.962 198.292 494.901 198.292L483.806 198.292C483.745 198.292 483.685 198.304 483.629 198.328C483.573 198.351 483.522 198.385 483.479 198.428C483.436 198.471 483.402 198.522 483.379 198.578C483.355 198.634 483.343 198.694 483.343 198.755L483.343 201.086L476.409 201.086L476.409 198.755C476.409 198.694 476.397 198.634 476.374 198.578C476.35 198.522 476.316 198.471 476.273 198.428C476.231 198.385 476.18 198.351 476.123 198.328C476.067 198.304 476.007 198.292 475.947 198.292L464.851 198.292C464.791 198.292 464.731 198.304 464.674 198.328C464.618 198.351 464.567 198.385 464.524 198.428C464.482 198.471 464.447 198.522 464.424 198.578C464.401 198.634 464.389 198.694 464.389 198.755V198.755L464.389 201.086L457.455 201.086L457.455 198.755C457.455 198.694 457.443 198.634 457.419 198.578C457.396 198.522 457.362 198.471 457.319 198.428C457.276 198.385 457.225 198.351 457.169 198.328C457.113 198.304 457.053 198.292 456.992 198.292L445.897 198.292C445.836 198.292 445.776 198.304 445.72 198.328C445.664 198.351 445.613 198.385 445.57 198.428C445.527 198.471 445.493 198.522 445.47 198.578C445.447 198.634 445.435 198.694 445.435 198.755V198.755L445.435 201.086L438.5 201.086L438.5 198.755C438.5 198.694 438.488 198.634 438.465 198.578C438.442 198.522 438.408 198.471 438.365 198.428C438.322 198.385 438.271 198.351 438.215 198.328C438.159 198.304 438.099 198.292 438.038 198.292L426.943 198.292C426.882 198.292 426.822 198.304 426.766 198.328C426.71 198.351 426.659 198.385 426.616 198.428C426.573 198.471 426.539 198.522 426.516 198.578C426.492 198.634 426.48 198.694 426.48 198.755L426.48 201.086L419.546 201.086L419.546 198.755C419.546 198.694 419.534 198.634 419.511 198.578C419.487 198.522 419.453 198.471 419.41 198.428C419.368 198.385 419.317 198.351 419.261 198.328C419.204 198.304 419.144 198.292 419.084 198.292L407.988 198.292C407.928 198.292 407.868 198.304 407.811 198.328C407.755 198.351 407.704 198.385 407.661 198.428C407.619 198.471 407.584 198.522 407.561 198.578C407.538 198.634 407.526 198.694 407.526 198.755V198.755L407.526 201.086L400.592 201.086L400.592 198.755C400.592 198.694 400.58 198.634 400.556 198.578C400.533 198.522 400.499 198.471 400.456 198.428C400.413 198.385 400.362 198.351 400.306 198.328C400.25 198.304 400.19 198.292 400.129 198.292L389.034 198.292C388.973 198.292 388.913 198.304 388.857 198.328C388.801 198.351 388.75 198.385 388.707 198.428C388.664 198.471 388.63 198.522 388.607 198.578C388.584 198.634 388.572 198.694 388.572 198.755V198.755L388.572 201.086L381.637 201.086L381.637 198.755C381.637 198.694 381.625 198.634 381.602 198.578C381.579 198.522 381.545 198.471 381.502 198.428C381.459 198.385 381.408 198.351 381.352 198.328C381.296 198.304 381.236 198.292 381.175 198.292L294.262 198.292C294.202 198.292 294.141 198.304 294.085 198.328C294.029 198.351 293.978 198.385 293.935 198.428C293.892 198.471 293.858 198.522 293.835 198.578C293.812 198.634 293.8 198.694 293.8 198.755V198.755L293.8 201.086L286.866 201.086L286.866 198.755C286.866 198.694 286.854 198.634 286.83 198.578C286.807 198.522 286.773 198.471 286.73 198.428C286.687 198.385 286.636 198.351 286.58 198.328C286.524 198.304 286.464 198.292 286.403 198.292L275.308 198.292C275.247 198.292 275.187 198.304 275.131 198.328C275.075 198.351 275.024 198.385 274.981 198.428C274.938 198.471 274.904 198.522 274.881 198.578C274.858 198.634 274.846 198.694 274.846 198.755V198.755L274.846 201.086L267.911 201.086L267.911 198.755C267.911 198.694 267.899 198.634 267.876 198.578C267.853 198.522 267.819 198.471 267.776 198.428C267.733 198.385 267.682 198.351 267.626 198.328C267.57 198.304 267.51 198.292 267.449 198.292L256.354 198.292C256.293 198.292 256.233 198.304 256.177 198.328C256.121 198.351 256.07 198.385 256.027 198.428C255.984 198.471 255.95 198.522 255.927 198.578C255.903 198.634 255.891 198.694 255.891 198.755V198.755L255.891 201.086L248.957 201.086L248.957 198.755C248.957 198.694 248.945 198.634 248.922 198.578C248.898 198.522 248.864 198.471 248.821 198.428C248.778 198.385 248.728 198.351 248.671 198.328C248.615 198.304 248.555 198.292 248.495 198.292L237.399 198.292C237.339 198.292 237.278 198.304 237.222 198.328C237.166 198.351 237.115 198.385 237.072 198.428C237.029 198.471 236.995 198.522 236.972 198.578C236.949 198.634 236.937 198.694 236.937 198.755V198.755L236.937 201.086L230.002 201.086L230.002 198.755C230.002 198.694 229.991 198.634 229.967 198.578C229.944 198.522 229.91 198.471 229.867 198.428C229.824 198.385 229.773 198.351 229.717 198.328C229.661 198.304 229.601 198.292 229.54 198.292L218.445 198.292C218.384 198.292 218.324 198.304 218.268 198.328C218.212 198.351 218.161 198.385 218.118 198.428C218.075 198.471 218.041 198.522 218.018 198.578C217.995 198.634 217.983 198.694 217.983 198.755V198.755L217.983 201.086L211.048 201.086L211.048 198.755C211.048 198.694 211.036 198.634 211.013 198.578C210.99 198.522 210.956 198.471 210.913 198.428C210.87 198.385 210.819 198.351 210.763 198.328C210.707 198.304 210.647 198.292 210.586 198.292L199.491 198.292C199.368 198.292 199.25 198.341 199.164 198.428C199.077 198.515 199.028 198.632 199.028 198.755L199.028 201.086L192.094 201.086L192.094 198.755C192.094 198.694 192.082 198.634 192.059 198.578C192.035 198.522 192.001 198.471 191.958 198.428C191.915 198.385 191.865 198.351 191.808 198.328C191.752 198.304 191.692 198.292 191.631 198.292L180.536 198.292C180.414 198.292 180.296 198.341 180.209 198.428C180.123 198.515 180.074 198.632 180.074 198.755L180.074 201.086L158.808 201.086C155.865 201.086 153.043 202.255 150.963 204.336C148.882 206.417 147.713 209.239 147.713 212.182L147.713 217.199C147.713 220.141 148.882 222.963 150.963 225.044C153.043 227.125 155.865 228.294 158.808 228.294L527.724 228.294C530.667 228.294 533.489 227.125 535.57 225.044C537.651 222.963 538.819 220.141 538.82 217.199L538.82 212.182C538.82 210.725 538.532 209.282 537.975 207.936C537.417 206.59 536.6 205.366 535.57 204.336C534.539 203.306 533.316 202.489 531.97 201.931C530.624 201.373 529.181 201.086 527.724 201.086V201.086Z" fill="#3F3D56"/>
</g>
<defs>
<clipPath id="clip0_205_128">
<rect width="538.82" height="230.796" fill="white" transform="translate(-0.000488281 0.998535)"/>
</clipPath>
</defs>
</svg>
