<svg width="113" height="15" viewBox="0 0 113 15" fill="none" xmlns="http://www.w3.org/2000/svg">
<path d="M6 0.257324H8V2.25732H6V0.257324Z" fill="url(#paint0_linear_1_99)"/>
<path d="M4 2.25732H6V4.25732H4V2.25732Z" fill="url(#paint1_linear_1_99)"/>
<path d="M2 4.25732H4V6.25732H2V4.25732Z" fill="url(#paint2_linear_1_99)"/>
<path d="M0 6.25732H2V8.25732H0V6.25732Z" fill="url(#paint3_linear_1_99)"/>
<path d="M2 8.25732H4V10.2573H2V8.25732Z" fill="url(#paint4_linear_1_99)"/>
<path d="M4 10.2573H6V12.2573H4V10.2573Z" fill="url(#paint5_linear_1_99)"/>
<path d="M6 12.2573H8V14.2573H6V12.2573Z" fill="url(#paint6_linear_1_99)"/>
<path d="M11.8059 0L12.9733 0.231077L10.1502 14.4923L8.98288 14.2612L11.8059 0Z" fill="url(#paint7_linear_1_99)"/>
<path d="M62.4951 7.28323L62.5 5.28323L64.5 5.28818L64.4951 7.28817L62.4951 7.28323Z" fill="url(#paint8_linear_1_99)"/>
<path d="M64.4852 9.28323L64.4901 7.28323L66.4901 7.28818L66.4852 9.28817L64.4852 9.28323Z" fill="url(#paint9_linear_1_99)"/>
<path d="M66.4802 11.2882L66.4852 9.28817L68.4852 9.29311L68.4802 11.2931L66.4802 11.2882Z" fill="url(#paint10_linear_1_99)"/>
<path d="M68.4852 9.29311L68.4951 7.29806L70.495 7.30301L70.4901 9.303L68.4852 9.29311Z" fill="url(#paint11_linear_1_99)"/>
<path d="M70.495 7.30301L70.5 5.30301L72.5 5.30795L72.4951 7.30795L70.495 7.30301Z" fill="url(#paint12_linear_1_99)"/>
<path d="M106.004 14.259L104.004 14.2595L104.003 12.2595L106.003 12.259L106.004 14.259Z" fill="url(#paint13_linear_1_99)"/>
<path d="M108.003 12.2584L106.003 12.259L106.003 10.259L108.003 10.2584L108.003 12.2584Z" fill="url(#paint14_linear_1_99)"/>
<path d="M110.003 10.2579L108.003 10.2584L108.002 8.25842L110.002 8.25787L110.003 10.2579Z" fill="url(#paint15_linear_1_99)"/>
<path d="M112.002 8.25732L110.002 8.25787L110.002 6.25787L112.002 6.25732L112.002 8.25732Z" fill="url(#paint16_linear_1_99)"/>
<path d="M110.002 6.25787L108.002 6.25842L108.001 4.25842L110.001 4.25787L110.002 6.25787Z" fill="url(#paint17_linear_1_99)"/>
<path d="M108.001 4.25842L106.001 4.25897L106.001 2.25897L108.001 2.25842L108.001 4.25842Z" fill="url(#paint18_linear_1_99)"/>
<path d="M106.001 2.25897L104.001 2.25952L104 0.259522L106 0.258972L106.001 2.25897Z" fill="url(#paint19_linear_1_99)"/>
<path d="M19.268 10.1293V11.2573H14.816V3.39734H16.064V10.1293H19.268Z" fill="#050B39"/>
<path d="M24.08 11.2573L24.056 10.8373C23.416 11.1973 22.896 11.3773 22.496 11.3773C21.848 11.3773 21.376 11.1933 21.08 10.8253C20.784 10.4493 20.636 9.85334 20.636 9.03734V5.55734H21.872V8.96534C21.872 9.78934 22.14 10.2013 22.676 10.2013C23.1 10.2013 23.556 10.0373 24.044 9.70934V5.55734H25.28V11.2573H24.08Z" fill="#050B39"/>
<path d="M29.912 7.63334V6.64934C29.728 6.61734 29.548 6.60134 29.372 6.60134C28.876 6.60134 28.528 6.74534 28.328 7.03334C28.136 7.32134 28.04 7.77734 28.04 8.40134C28.04 9.02534 28.14 9.48934 28.34 9.79334C28.548 10.0893 28.908 10.2373 29.42 10.2373C29.932 10.2373 30.456 10.1653 30.992 10.0213L31.172 11.1733C30.612 11.3333 30.012 11.4133 29.372 11.4133C27.596 11.4133 26.708 10.4133 26.708 8.41334C26.708 7.38134 26.908 6.62934 27.308 6.15734C27.716 5.67734 28.392 5.43734 29.336 5.43734C29.944 5.43734 30.528 5.51334 31.088 5.66534V7.63334H29.912Z" fill="#050B39"/>
<path d="M34.592 10.2253C34.816 10.2253 35.064 10.1733 35.336 10.0693C35.608 9.96534 35.824 9.84934 35.984 9.72134V8.88134C35.504 8.84134 35.112 8.82134 34.808 8.82134C34.144 8.82134 33.812 9.06934 33.812 9.56534C33.812 10.0053 34.072 10.2253 34.592 10.2253ZM34.4 11.3893C33.12 11.3893 32.48 10.7813 32.48 9.56534C32.48 8.91734 32.684 8.46534 33.092 8.20934C33.508 7.94534 34.08 7.81334 34.808 7.81334C35.152 7.81334 35.544 7.83334 35.984 7.87334C35.984 7.39334 35.916 7.06534 35.78 6.88934C35.644 6.71334 35.408 6.62534 35.072 6.62534C34.736 6.62534 34.344 6.66534 33.896 6.74534C33.448 6.82534 33.104 6.90534 32.864 6.98534L32.636 5.84534C33.476 5.58934 34.296 5.46134 35.096 5.46134C35.896 5.46134 36.448 5.63734 36.752 5.98934C37.064 6.34134 37.22 6.93734 37.22 7.77734V10.2133L37.352 11.2693L36.116 11.3893L35.996 10.8373C35.324 11.2053 34.792 11.3893 34.4 11.3893Z" fill="#050B39"/>
<path d="M38.756 10.9933L39.02 9.90134C39.78 10.1413 40.384 10.2613 40.832 10.2613C41.28 10.2613 41.584 10.2173 41.744 10.1293C41.904 10.0493 41.984 9.90534 41.984 9.69734C41.984 9.48934 41.912 9.34134 41.768 9.25334C41.624 9.16534 41.352 9.07334 40.952 8.97734C40.16 8.78534 39.608 8.57334 39.296 8.34134C38.984 8.10134 38.828 7.71334 38.828 7.17734C38.828 6.03334 39.564 5.46134 41.036 5.46134C41.668 5.46134 42.4 5.56534 43.232 5.77334L43.004 6.91334C42.212 6.68934 41.6 6.57734 41.168 6.57734C40.736 6.57734 40.444 6.61734 40.292 6.69734C40.148 6.76934 40.076 6.89734 40.076 7.08134C40.076 7.26534 40.148 7.40134 40.292 7.48934C40.444 7.56934 40.828 7.69334 41.444 7.86134C42.06 8.02934 42.512 8.22534 42.8 8.44934C43.088 8.66534 43.232 9.03734 43.232 9.56534C43.232 10.7733 42.488 11.3773 41 11.3773C40.304 11.3773 39.556 11.2493 38.756 10.9933Z" fill="#050B39"/>
<path d="M45.116 6.19334C45.524 5.70534 46.152 5.46134 47 5.46134C47.848 5.46134 48.476 5.70534 48.884 6.19334C49.292 6.67334 49.496 7.41734 49.496 8.42534C49.496 9.43334 49.292 10.1853 48.884 10.6813C48.476 11.1693 47.848 11.4133 47 11.4133C46.152 11.4133 45.524 11.1693 45.116 10.6813C44.708 10.1853 44.504 9.43334 44.504 8.42534C44.504 7.41734 44.708 6.67334 45.116 6.19334ZM46.076 7.04534C45.916 7.32534 45.836 7.78534 45.836 8.42534C45.836 9.06534 45.92 9.52934 46.088 9.81734C46.256 10.1053 46.56 10.2493 47 10.2493C47.44 10.2493 47.744 10.1053 47.912 9.81734C48.08 9.52934 48.164 9.06534 48.164 8.42534C48.164 7.78534 48.08 7.32534 47.912 7.04534C47.752 6.76534 47.448 6.62534 47 6.62534C46.552 6.62534 46.244 6.76534 46.076 7.04534Z" fill="#050B39"/>
<path d="M50.456 11.2573V3.39734H52.328C52.96 3.39734 53.468 3.44934 53.852 3.55334C54.244 3.65734 54.576 3.85334 54.848 4.14134C55.12 4.42934 55.312 4.82934 55.424 5.34134C55.536 5.84534 55.592 6.56534 55.592 7.50134C55.592 8.42934 55.476 9.17734 55.244 9.74534C55.02 10.3133 54.68 10.7093 54.224 10.9333C53.768 11.1493 53.128 11.2573 52.304 11.2573H50.456ZM53.84 9.66134C54.024 9.45334 54.148 9.16934 54.212 8.80934C54.284 8.44134 54.32 7.94534 54.32 7.32134C54.32 6.68934 54.292 6.19334 54.236 5.83334C54.18 5.47334 54.06 5.18934 53.876 4.98134C53.7 4.76534 53.48 4.62934 53.216 4.57334C52.952 4.50934 52.576 4.47734 52.088 4.47734H51.704V10.1773H52.064C52.528 10.1773 52.892 10.1453 53.156 10.0813C53.428 10.0093 53.656 9.86934 53.84 9.66134Z" fill="#050B39"/>
<path d="M56.588 8.41334C56.588 7.44534 56.804 6.71334 57.236 6.21734C57.668 5.71334 58.268 5.46134 59.036 5.46134C59.804 5.46134 60.396 5.68934 60.812 6.14534C61.236 6.59334 61.456 7.25334 61.472 8.12534L61.424 9.01334H57.92C57.992 9.87734 58.424 10.3093 59.216 10.3093C59.768 10.3093 60.352 10.2093 60.968 10.0093L61.22 11.0533C60.964 11.1413 60.632 11.2173 60.224 11.2813C59.816 11.3533 59.48 11.3893 59.216 11.3893C57.464 11.3893 56.588 10.3973 56.588 8.41334ZM59.084 6.57734C58.708 6.57734 58.424 6.68934 58.232 6.91334C58.048 7.12934 57.944 7.49334 57.92 8.00534H60.14C60.14 7.05334 59.788 6.57734 59.084 6.57734Z" fill="#050B39"/>
<path d="M73.456 11.2573V3.39734H75.328C75.96 3.39734 76.468 3.44934 76.852 3.55334C77.244 3.65734 77.576 3.85334 77.848 4.14134C78.12 4.42934 78.312 4.82934 78.424 5.34134C78.536 5.84534 78.592 6.56534 78.592 7.50134C78.592 8.42934 78.476 9.17734 78.244 9.74534C78.02 10.3133 77.68 10.7093 77.224 10.9333C76.768 11.1493 76.128 11.2573 75.304 11.2573H73.456ZM76.84 9.66134C77.024 9.45334 77.148 9.16934 77.212 8.80934C77.284 8.44134 77.32 7.94534 77.32 7.32134C77.32 6.68934 77.292 6.19334 77.236 5.83334C77.18 5.47334 77.06 5.18934 76.876 4.98134C76.7 4.76534 76.48 4.62934 76.216 4.57334C75.952 4.50934 75.576 4.47734 75.088 4.47734H74.704V10.1773H75.064C75.528 10.1773 75.892 10.1453 76.156 10.0813C76.428 10.0093 76.656 9.86934 76.84 9.66134Z" fill="#050B39"/>
<path d="M80.116 6.19334C80.524 5.70534 81.152 5.46134 82 5.46134C82.848 5.46134 83.476 5.70534 83.884 6.19334C84.292 6.67334 84.496 7.41734 84.496 8.42534C84.496 9.43334 84.292 10.1853 83.884 10.6813C83.476 11.1693 82.848 11.4133 82 11.4133C81.152 11.4133 80.524 11.1693 80.116 10.6813C79.708 10.1853 79.504 9.43334 79.504 8.42534C79.504 7.41734 79.708 6.67334 80.116 6.19334ZM81.076 7.04534C80.916 7.32534 80.836 7.78534 80.836 8.42534C80.836 9.06534 80.92 9.52934 81.088 9.81734C81.256 10.1053 81.56 10.2493 82 10.2493C82.44 10.2493 82.744 10.1053 82.912 9.81734C83.08 9.52934 83.164 9.06534 83.164 8.42534C83.164 7.78534 83.08 7.32534 82.912 7.04534C82.752 6.76534 82.448 6.62534 82 6.62534C81.552 6.62534 81.244 6.76534 81.076 7.04534Z" fill="#050B39"/>
<path d="M85.708 6.66134V5.55734H86.68V4.18934L87.916 4.06934V5.55734H90.16V6.66134H87.916V9.06134C87.916 9.50134 87.96 9.81334 88.048 9.99734C88.136 10.1733 88.316 10.2613 88.588 10.2613C89.06 10.2613 89.612 10.1853 90.244 10.0333L90.448 11.1013C89.752 11.2853 89.132 11.3773 88.588 11.3773C87.82 11.3773 87.308 11.2053 87.052 10.8613C86.804 10.5173 86.68 9.91734 86.68 9.06134V6.66134H85.708Z" fill="#050B39"/>
<path d="M91.336 4.52534V3.39734H96.64V4.52534H94.612V11.2573H93.364V4.52534H91.336Z" fill="#050B39"/>
<path d="M97.924 11.2573V3.27734H99.16V7.84934L99.952 7.76534C100.4 7.18934 100.792 6.56534 101.128 5.89334L101.296 5.55734H102.64C102.136 6.62134 101.576 7.50934 100.96 8.22134C101.472 8.94934 101.988 9.80934 102.508 10.8013L102.748 11.2573H101.344C100.952 10.4093 100.504 9.59734 100 8.82134L99.16 8.90534V11.2573H97.924Z" fill="#050B39"/>
<defs>
<linearGradient id="paint0_linear_1_99" x1="3" y1="2.5" x2="11.5" y2="13" gradientUnits="userSpaceOnUse">
<stop stop-color="#8A06D7"/>
<stop offset="0.43156" stop-color="#BC0DDE"/>
<stop offset="1" stop-color="#EE387A"/>
</linearGradient>
<linearGradient id="paint1_linear_1_99" x1="3" y1="2.5" x2="11.5" y2="13" gradientUnits="userSpaceOnUse">
<stop stop-color="#8A06D7"/>
<stop offset="0.43156" stop-color="#BC0DDE"/>
<stop offset="1" stop-color="#EE387A"/>
</linearGradient>
<linearGradient id="paint2_linear_1_99" x1="3" y1="2.5" x2="11.5" y2="13" gradientUnits="userSpaceOnUse">
<stop stop-color="#8A06D7"/>
<stop offset="0.43156" stop-color="#BC0DDE"/>
<stop offset="1" stop-color="#EE387A"/>
</linearGradient>
<linearGradient id="paint3_linear_1_99" x1="3" y1="2.5" x2="11.5" y2="13" gradientUnits="userSpaceOnUse">
<stop stop-color="#8A06D7"/>
<stop offset="0.43156" stop-color="#BC0DDE"/>
<stop offset="1" stop-color="#EE387A"/>
</linearGradient>
<linearGradient id="paint4_linear_1_99" x1="3" y1="2.5" x2="11.5" y2="13" gradientUnits="userSpaceOnUse">
<stop stop-color="#8A06D7"/>
<stop offset="0.43156" stop-color="#BC0DDE"/>
<stop offset="1" stop-color="#EE387A"/>
</linearGradient>
<linearGradient id="paint5_linear_1_99" x1="3" y1="2.5" x2="11.5" y2="13" gradientUnits="userSpaceOnUse">
<stop stop-color="#8A06D7"/>
<stop offset="0.43156" stop-color="#BC0DDE"/>
<stop offset="1" stop-color="#EE387A"/>
</linearGradient>
<linearGradient id="paint6_linear_1_99" x1="3" y1="2.5" x2="11.5" y2="13" gradientUnits="userSpaceOnUse">
<stop stop-color="#8A06D7"/>
<stop offset="0.43156" stop-color="#BC0DDE"/>
<stop offset="1" stop-color="#EE387A"/>
</linearGradient>
<linearGradient id="paint7_linear_1_99" x1="3" y1="2.5" x2="11.5" y2="13" gradientUnits="userSpaceOnUse">
<stop stop-color="#8A06D7"/>
<stop offset="0.43156" stop-color="#BC0DDE"/>
<stop offset="1" stop-color="#EE387A"/>
</linearGradient>
<linearGradient id="paint8_linear_1_99" x1="84.5" y1="0.499999" x2="82.5" y2="14" gradientUnits="userSpaceOnUse">
<stop offset="0.265554" stop-color="#8A06D7"/>
<stop offset="0.580678" stop-color="#BC0DDE"/>
<stop offset="1" stop-color="#EE387A"/>
</linearGradient>
<linearGradient id="paint9_linear_1_99" x1="84.5" y1="0.499999" x2="82.5" y2="14" gradientUnits="userSpaceOnUse">
<stop offset="0.265554" stop-color="#8A06D7"/>
<stop offset="0.580678" stop-color="#BC0DDE"/>
<stop offset="1" stop-color="#EE387A"/>
</linearGradient>
<linearGradient id="paint10_linear_1_99" x1="84.5" y1="0.499999" x2="82.5" y2="14" gradientUnits="userSpaceOnUse">
<stop offset="0.265554" stop-color="#8A06D7"/>
<stop offset="0.580678" stop-color="#BC0DDE"/>
<stop offset="1" stop-color="#EE387A"/>
</linearGradient>
<linearGradient id="paint11_linear_1_99" x1="84.5" y1="0.499999" x2="82.5" y2="14" gradientUnits="userSpaceOnUse">
<stop offset="0.265554" stop-color="#8A06D7"/>
<stop offset="0.580678" stop-color="#BC0DDE"/>
<stop offset="1" stop-color="#EE387A"/>
</linearGradient>
<linearGradient id="paint12_linear_1_99" x1="84.5" y1="0.499999" x2="82.5" y2="14" gradientUnits="userSpaceOnUse">
<stop offset="0.265554" stop-color="#8A06D7"/>
<stop offset="0.580678" stop-color="#BC0DDE"/>
<stop offset="1" stop-color="#EE387A"/>
</linearGradient>
<linearGradient id="paint13_linear_1_99" x1="84.5" y1="0.499999" x2="82.5" y2="14" gradientUnits="userSpaceOnUse">
<stop offset="0.265554" stop-color="#8A06D7"/>
<stop offset="0.580678" stop-color="#BC0DDE"/>
<stop offset="1" stop-color="#EE387A"/>
</linearGradient>
<linearGradient id="paint14_linear_1_99" x1="84.5" y1="0.499999" x2="82.5" y2="14" gradientUnits="userSpaceOnUse">
<stop offset="0.265554" stop-color="#8A06D7"/>
<stop offset="0.580678" stop-color="#BC0DDE"/>
<stop offset="1" stop-color="#EE387A"/>
</linearGradient>
<linearGradient id="paint15_linear_1_99" x1="84.5" y1="0.499999" x2="82.5" y2="14" gradientUnits="userSpaceOnUse">
<stop offset="0.265554" stop-color="#8A06D7"/>
<stop offset="0.580678" stop-color="#BC0DDE"/>
<stop offset="1" stop-color="#EE387A"/>
</linearGradient>
<linearGradient id="paint16_linear_1_99" x1="84.5" y1="0.499999" x2="82.5" y2="14" gradientUnits="userSpaceOnUse">
<stop offset="0.265554" stop-color="#8A06D7"/>
<stop offset="0.580678" stop-color="#BC0DDE"/>
<stop offset="1" stop-color="#EE387A"/>
</linearGradient>
<linearGradient id="paint17_linear_1_99" x1="84.5" y1="0.499999" x2="82.5" y2="14" gradientUnits="userSpaceOnUse">
<stop offset="0.265554" stop-color="#8A06D7"/>
<stop offset="0.580678" stop-color="#BC0DDE"/>
<stop offset="1" stop-color="#EE387A"/>
</linearGradient>
<linearGradient id="paint18_linear_1_99" x1="84.5" y1="0.499999" x2="82.5" y2="14" gradientUnits="userSpaceOnUse">
<stop offset="0.265554" stop-color="#8A06D7"/>
<stop offset="0.580678" stop-color="#BC0DDE"/>
<stop offset="1" stop-color="#EE387A"/>
</linearGradient>
<linearGradient id="paint19_linear_1_99" x1="84.5" y1="0.499999" x2="82.5" y2="14" gradientUnits="userSpaceOnUse">
<stop offset="0.265554" stop-color="#8A06D7"/>
<stop offset="0.580678" stop-color="#BC0DDE"/>
<stop offset="1" stop-color="#EE387A"/>
</linearGradient>
</defs>
</svg>
