<svg width="800" height="800" viewBox="0 0 800 800" fill="none" xmlns="http://www.w3.org/2000/svg">
<rect width="800" height="800" rx="78" fill="#D9D9D9"/>
<circle cx="400" cy="400" r="349" stroke="black" stroke-width="2"/>
<circle cx="400" cy="400" r="299" stroke="black" stroke-width="2"/>
<circle cx="400" cy="400" r="249" stroke="black" stroke-width="2"/>
<path d="M231.729 400V357.091H248.658C251.913 357.091 254.685 357.712 256.976 358.956C259.267 360.185 261.013 361.896 262.214 364.089C263.429 366.268 264.037 368.782 264.037 371.631C264.037 374.481 263.422 376.995 262.193 379.174C260.964 381.353 259.183 383.05 256.85 384.265C254.532 385.48 251.724 386.088 248.428 386.088H237.638V378.818H246.961C248.707 378.818 250.146 378.518 251.277 377.917C252.423 377.302 253.275 376.457 253.833 375.382C254.406 374.292 254.692 373.042 254.692 371.631C254.692 370.207 254.406 368.964 253.833 367.902C253.275 366.826 252.423 365.995 251.277 365.409C250.132 364.808 248.679 364.508 246.919 364.508H240.801V400H231.729ZM278.687 357.091V400H269.762V357.091H278.687ZM295.014 400.608C292.961 400.608 291.131 400.251 289.525 399.539C287.918 398.813 286.647 397.744 285.711 396.333C284.79 394.909 284.329 393.135 284.329 391.012C284.329 389.224 284.657 387.722 285.313 386.507C285.97 385.292 286.864 384.314 287.995 383.574C289.127 382.834 290.412 382.275 291.85 381.898C293.303 381.521 294.825 381.255 296.418 381.102C298.289 380.906 299.798 380.724 300.943 380.557C302.089 380.375 302.92 380.11 303.437 379.761C303.953 379.411 304.212 378.895 304.212 378.21V378.085C304.212 376.758 303.793 375.731 302.955 375.005C302.131 374.278 300.957 373.915 299.435 373.915C297.829 373.915 296.55 374.271 295.601 374.984C294.651 375.682 294.022 376.562 293.715 377.624L285.46 376.953C285.879 374.998 286.703 373.308 287.932 371.883C289.162 370.444 290.747 369.341 292.688 368.572C294.644 367.79 296.907 367.399 299.477 367.399C301.265 367.399 302.976 367.609 304.61 368.028C306.258 368.447 307.718 369.096 308.989 369.976C310.274 370.856 311.287 371.988 312.027 373.37C312.767 374.739 313.137 376.38 313.137 378.294V400H304.673V395.537H304.421C303.905 396.543 303.213 397.43 302.347 398.198C301.481 398.952 300.441 399.546 299.225 399.979C298.01 400.398 296.606 400.608 295.014 400.608ZM297.57 394.448C298.883 394.448 300.042 394.189 301.048 393.673C302.054 393.142 302.843 392.429 303.416 391.536C303.988 390.642 304.275 389.629 304.275 388.498V385.082C303.995 385.264 303.611 385.432 303.122 385.585C302.647 385.725 302.11 385.858 301.509 385.983C300.908 386.095 300.308 386.2 299.707 386.298C299.107 386.381 298.562 386.458 298.073 386.528C297.025 386.682 296.111 386.926 295.328 387.261C294.546 387.597 293.939 388.051 293.506 388.623C293.073 389.182 292.856 389.88 292.856 390.718C292.856 391.934 293.296 392.862 294.176 393.505C295.07 394.134 296.201 394.448 297.57 394.448ZM334.602 400.629C331.306 400.629 328.47 399.93 326.096 398.533C323.735 397.123 321.92 395.167 320.648 392.667C319.391 390.167 318.763 387.289 318.763 384.035C318.763 380.738 319.398 377.847 320.669 375.361C321.954 372.861 323.777 370.912 326.138 369.515C328.498 368.105 331.306 367.399 334.56 367.399C337.368 367.399 339.826 367.909 341.935 368.929C344.045 369.948 345.714 371.38 346.943 373.224C348.172 375.067 348.849 377.232 348.975 379.719H340.553C340.315 378.112 339.687 376.82 338.667 375.843C337.661 374.851 336.341 374.355 334.707 374.355C333.324 374.355 332.116 374.732 331.082 375.487C330.063 376.227 329.267 377.309 328.694 378.734C328.121 380.159 327.835 381.884 327.835 383.909C327.835 385.962 328.114 387.708 328.673 389.147C329.246 390.586 330.049 391.682 331.082 392.436C332.116 393.191 333.324 393.568 334.707 393.568C335.727 393.568 336.642 393.358 337.452 392.939C338.276 392.52 338.953 391.913 339.484 391.116C340.029 390.306 340.385 389.336 340.553 388.204H348.975C348.835 390.663 348.165 392.828 346.964 394.699C345.777 396.557 344.135 398.01 342.04 399.057C339.945 400.105 337.466 400.629 334.602 400.629ZM369.356 400.629C366.046 400.629 363.196 399.958 360.808 398.617C358.433 397.262 356.603 395.349 355.318 392.876C354.033 390.39 353.391 387.45 353.391 384.056C353.391 380.745 354.033 377.84 355.318 375.34C356.603 372.84 358.412 370.891 360.745 369.494C363.091 368.098 365.843 367.399 369 367.399C371.123 367.399 373.099 367.741 374.929 368.426C376.773 369.096 378.379 370.109 379.748 371.464C381.131 372.819 382.206 374.523 382.975 376.576C383.743 378.615 384.127 381.004 384.127 383.741V386.193H356.953V380.662H375.725C375.725 379.377 375.446 378.238 374.887 377.246C374.328 376.255 373.553 375.48 372.562 374.921C371.584 374.348 370.445 374.062 369.146 374.062C367.792 374.062 366.59 374.376 365.543 375.005C364.509 375.619 363.699 376.45 363.112 377.498C362.526 378.531 362.225 379.684 362.211 380.955V386.214C362.211 387.806 362.505 389.182 363.091 390.341C363.692 391.501 364.537 392.395 365.627 393.023C366.716 393.652 368.008 393.966 369.503 393.966C370.494 393.966 371.402 393.826 372.226 393.547C373.05 393.268 373.756 392.848 374.342 392.29C374.929 391.731 375.376 391.047 375.683 390.237L383.938 390.781C383.519 392.765 382.66 394.497 381.361 395.977C380.076 397.444 378.414 398.589 376.375 399.413C374.349 400.223 372.01 400.629 369.356 400.629ZM398.877 381.395V400H389.951V357.091H398.625V373.496H399.003C399.729 371.596 400.902 370.109 402.522 369.033C404.143 367.944 406.175 367.399 408.619 367.399C410.854 367.399 412.803 367.888 414.465 368.866C416.141 369.83 417.44 371.219 418.362 373.035C419.298 374.837 419.759 376.995 419.745 379.509V400H410.819V381.102C410.833 379.118 410.33 377.575 409.311 376.471C408.305 375.368 406.894 374.816 405.079 374.816C403.863 374.816 402.788 375.074 401.852 375.591C400.93 376.108 400.204 376.862 399.673 377.854C399.156 378.832 398.891 380.012 398.877 381.395ZM441.309 400.629C438.055 400.629 435.24 399.937 432.866 398.554C430.505 397.158 428.682 395.216 427.397 392.73C426.112 390.23 425.47 387.331 425.47 384.035C425.47 380.71 426.112 377.805 427.397 375.319C428.682 372.819 430.505 370.877 432.866 369.494C435.24 368.098 438.055 367.399 441.309 367.399C444.564 367.399 447.371 368.098 449.732 369.494C452.106 370.877 453.936 372.819 455.221 375.319C456.506 377.805 457.149 380.71 457.149 384.035C457.149 387.331 456.506 390.23 455.221 392.73C453.936 395.216 452.106 397.158 449.732 398.554C447.371 399.937 444.564 400.629 441.309 400.629ZM441.351 393.714C442.832 393.714 444.068 393.295 445.06 392.457C446.051 391.605 446.799 390.446 447.301 388.979C447.818 387.513 448.077 385.844 448.077 383.972C448.077 382.1 447.818 380.431 447.301 378.964C446.799 377.498 446.051 376.339 445.06 375.487C444.068 374.634 442.832 374.208 441.351 374.208C439.857 374.208 438.6 374.634 437.58 375.487C436.574 376.339 435.813 377.498 435.296 378.964C434.793 380.431 434.542 382.1 434.542 383.972C434.542 385.844 434.793 387.513 435.296 388.979C435.813 390.446 436.574 391.605 437.58 392.457C438.6 393.295 439.857 393.714 441.351 393.714ZM471.878 357.091V400H462.952V357.091H471.878ZM490.886 400.524C488.442 400.524 486.228 399.895 484.245 398.638C482.275 397.367 480.711 395.502 479.551 393.044C478.406 390.572 477.833 387.541 477.833 383.951C477.833 380.263 478.427 377.198 479.614 374.753C480.802 372.295 482.38 370.458 484.349 369.243C486.333 368.014 488.505 367.399 490.865 367.399C492.667 367.399 494.169 367.706 495.37 368.321C496.585 368.922 497.563 369.676 498.303 370.584C499.057 371.478 499.63 372.358 500.021 373.224H500.294V357.091H509.198V400H500.398V394.846H500.021C499.602 395.74 499.009 396.627 498.24 397.507C497.486 398.373 496.501 399.092 495.286 399.665C494.085 400.237 492.618 400.524 490.886 400.524ZM493.715 393.421C495.153 393.421 496.369 393.03 497.36 392.248C498.366 391.452 499.134 390.341 499.665 388.917C500.21 387.492 500.482 385.823 500.482 383.909C500.482 381.996 500.217 380.333 499.686 378.923C499.155 377.512 498.387 376.422 497.381 375.654C496.376 374.886 495.153 374.502 493.715 374.502C492.248 374.502 491.012 374.9 490.006 375.696C489.001 376.492 488.239 377.596 487.723 379.006C487.206 380.417 486.947 382.051 486.947 383.909C486.947 385.781 487.206 387.436 487.723 388.875C488.253 390.299 489.015 391.417 490.006 392.227C491.012 393.023 492.248 393.421 493.715 393.421ZM531.203 400.629C527.892 400.629 525.043 399.958 522.654 398.617C520.28 397.262 518.45 395.349 517.165 392.876C515.88 390.39 515.237 387.45 515.237 384.056C515.237 380.745 515.88 377.84 517.165 375.34C518.45 372.84 520.259 370.891 522.591 369.494C524.938 368.098 527.69 367.399 530.846 367.399C532.97 367.399 534.946 367.741 536.776 368.426C538.619 369.096 540.226 370.109 541.595 371.464C542.977 372.819 544.053 374.523 544.821 376.576C545.589 378.615 545.974 381.004 545.974 383.741V386.193H518.799V380.662H537.572C537.572 379.377 537.293 378.238 536.734 377.246C536.175 376.255 535.4 375.48 534.408 374.921C533.43 374.348 532.292 374.062 530.993 374.062C529.638 374.062 528.437 374.376 527.389 375.005C526.356 375.619 525.546 376.45 524.959 377.498C524.372 378.531 524.072 379.684 524.058 380.955V386.214C524.058 387.806 524.351 389.182 524.938 390.341C525.539 391.501 526.384 392.395 527.473 393.023C528.563 393.652 529.855 393.966 531.349 393.966C532.341 393.966 533.249 393.826 534.073 393.547C534.897 393.268 535.602 392.848 536.189 392.29C536.776 391.731 537.223 391.047 537.53 390.237L545.785 390.781C545.366 392.765 544.507 394.497 543.208 395.977C541.923 397.444 540.261 398.589 538.221 399.413C536.196 400.223 533.856 400.629 531.203 400.629ZM551.798 400V367.818H560.451V373.433H560.786C561.373 371.436 562.358 369.927 563.741 368.908C565.123 367.874 566.716 367.357 568.518 367.357C568.965 367.357 569.446 367.385 569.963 367.441C570.48 367.497 570.934 367.574 571.325 367.672V375.591C570.906 375.466 570.326 375.354 569.586 375.256C568.846 375.158 568.168 375.109 567.554 375.109C566.241 375.109 565.068 375.396 564.034 375.968C563.014 376.527 562.204 377.309 561.604 378.315C561.017 379.321 560.724 380.48 560.724 381.793V400H551.798Z" fill="black"/>
</svg>
